<?xml version="1.0" encoding="utf-8"?>
<!-- Generator: Adobe Illustrator 16.0.0, SVG Export Plug-In . SVG Version: 6.00 Build 0)  -->
<!DOCTYPE svg PUBLIC "-//W3C//DTD SVG 1.1//EN" "http://www.w3.org/Graphics/SVG/1.1/DTD/svg11.dtd">
<svg version="1.1" id="Layer_1" xmlns="http://www.w3.org/2000/svg" xmlns:xlink="http://www.w3.org/1999/xlink" x="0px" y="0px"
	 width="60px" height="60px" viewBox="-6 -6 60 60" enable-background="new -6 -6 60 60" xml:space="preserve">
<g>
	<path fill="#616161" d="M32.215,29.446c-7.257,0-21.785,3.635-21.785,10.893v5.446H54v-5.446
		C54,33.081,39.473,29.446,32.215,29.446z"/>
	<path fill="#616161" d="M32.215,24c6.019,0,10.893-4.888,10.893-10.893c0-6.018-4.874-10.893-10.893-10.893
		c-6.018,0-10.892,4.875-10.892,10.893C21.323,19.112,26.197,24,32.215,24z"/>
	<polygon display="none" fill="#616161" points="15.876,18.554 7.707,18.554 7.707,10.384 2.261,10.384 2.261,18.554 -5.909,18.554 
		-5.909,24 2.261,24 2.261,32.169 7.707,32.169 7.707,24 15.876,24 	"/>
</g>
<path fill="#616161" d="M9.265,23.443H8.277l-0.341-0.342c1.217-1.408,1.948-3.239,1.948-5.244c0-4.456-3.612-8.069-8.069-8.069
	c-4.457,0-8.069,3.613-8.069,8.069c0,4.457,3.612,8.069,8.069,8.069c2.005,0,3.836-0.731,5.244-1.943l0.342,0.341v0.981l6.208,6.195
	l1.85-1.852L9.265,23.443z M1.816,23.443c-3.085,0-5.586-2.501-5.586-5.586c0-3.084,2.5-5.586,5.586-5.586s5.586,2.501,5.586,5.586
	C7.402,20.942,4.901,23.443,1.816,23.443z"/>
</svg>
